<svg
          class="icone"
          viewBox="0 0 61 60"
          xmlns="http://www.w3.org/2000/svg"
          height="22"
          >
          <path
             d="M47.736 12.7641C43.1647 8.19286 36.9648 5.62476 30.5001 5.62476C24.0353 5.62476 17.8354 8.19286 13.2641 12.7641C8.69286 17.3354 6.12476 23.5353 6.12476 30.0001C6.12476 36.4648 8.69286 42.6647 13.2641 47.236C17.8354 51.8072 24.0353 54.3754 30.5001 54.3754C36.9648 54.3754 43.1647 51.8072 47.736 47.236C52.3072 42.6647 54.8754 36.4648 54.8754 30.0001C54.8754 23.5353 52.3072 17.3354 47.736 12.7641ZM45.0852 15.4172C46.0466 16.3828 46.9102 17.4411 47.6633 18.5766L39.7696 27.8907L33.2258 9.55786C37.7185 10.1447 41.8895 12.2055 45.0852 15.4172ZM36.9665 31.1719L32.7102 36.1805L26.2438 35.0086L24.0336 28.8282L28.2899 23.8196L34.7563 24.9915L36.9665 31.1719ZM15.9149 15.4172C19.456 11.8569 24.1822 9.72234 29.1946 9.41958L33.2985 20.904L14.1641 17.4188C14.704 16.7146 15.2889 16.0461 15.9149 15.4172ZM11.4336 37.861C10.321 35.1439 9.79847 32.2214 9.9007 29.2871C10.0029 26.3528 10.7276 23.4737 12.0266 20.8407L24.029 23.0321L11.4336 37.861ZM15.9149 44.5829C14.9535 43.6173 14.0899 42.559 13.3368 41.4235L21.2305 32.1094L27.7743 50.4329C23.2828 49.8486 19.112 47.7912 15.9149 44.5829ZM45.0852 44.5829C41.5441 48.1432 36.8179 50.2778 31.8055 50.5805L27.7016 39.0961L46.836 42.5907C46.2957 43.2916 45.7109 43.9571 45.0852 44.5829ZM36.9711 36.968L49.5665 22.1391C50.6791 24.8562 51.2016 27.7787 51.0994 30.713C50.9972 33.6473 50.2725 36.5264 48.9735 39.1594L36.9711 36.968Z"
            fill= "#f72585"
          /> 
        </svg>