<svg
          class="icone"
          viewBox="0 0 49 48"
          xmlns="http://www.w3.org/2000/svg"
          height="22"
          >
          <path
              d="M41.5555 7.63048C37.0173 3.13654 30.8868 0.618465 24.5 0.625013H24.2492C17.8281 0.691079 11.6925 3.28829 7.17538 7.85235C2.65828 12.4164 0.12466 18.5786 0.125 25C0.125 35.0781 6.35469 43.5297 16.3813 47.0711C17.5121 47.4698 18.7221 47.5915 19.9098 47.4261C21.0974 47.2607 22.2281 46.8129 23.2069 46.1203C24.1858 45.4277 24.9843 44.5105 25.5356 43.4456C26.0868 42.3807 26.3747 41.1991 26.375 40C26.375 39.0055 26.7701 38.0516 27.4734 37.3484C28.1766 36.6451 29.1304 36.25 30.125 36.25H40.9555C42.6567 36.2582 44.3097 35.6844 45.6398 34.6237C46.97 33.5629 47.8974 32.0792 48.268 30.4188C48.6871 28.5735 48.8908 26.6859 48.875 24.7938C48.8511 21.5909 48.1919 18.4247 46.9354 15.4785C45.679 12.5323 43.8503 9.8648 41.5555 7.63048ZM44.6023 29.5938C44.4161 30.421 43.9532 31.1599 43.2901 31.6883C42.627 32.2168 41.8034 32.5031 40.9555 32.5H30.125C28.1359 32.5 26.2282 33.2902 24.8217 34.6967C23.4152 36.1032 22.625 38.0109 22.625 40C22.6241 40.599 22.4798 41.189 22.2041 41.7208C21.9284 42.2525 21.5293 42.7105 21.0402 43.0563C20.5512 43.4022 19.9864 43.6259 19.3932 43.7086C18.7999 43.7914 18.1955 43.7308 17.6305 43.532C9.14609 40.5391 3.875 33.4375 3.875 25C3.87471 19.5667 6.01839 14.3527 9.84032 10.4908C13.6623 6.62896 18.8537 4.4312 24.2867 4.37501H24.4977C29.9309 4.39612 35.1382 6.55184 38.9965 10.3773C42.8548 14.2027 45.055 19.3914 45.1227 24.8242C45.1366 26.4284 44.9652 28.0289 44.6117 29.5938H44.6023ZM27.3125 12.8125C27.3125 13.3688 27.1475 13.9125 26.8385 14.3751C26.5295 14.8376 26.0902 15.1981 25.5763 15.4109C25.0624 15.6238 24.4969 15.6795 23.9513 15.571C23.4057 15.4625 22.9046 15.1946 22.5113 14.8013C22.1179 14.4079 21.8501 13.9068 21.7415 13.3612C21.633 12.8156 21.6887 12.2501 21.9016 11.7362C22.1145 11.2223 22.4749 10.783 22.9375 10.474C23.4 10.165 23.9437 10 24.5 10C25.2459 10 25.9613 10.2963 26.4887 10.8238C27.0162 11.3512 27.3125 12.0666 27.3125 12.8125ZM17 18.4375C17 18.9938 16.8351 19.5375 16.526 20.0001C16.217 20.4626 15.7777 20.8231 15.2638 21.0359C14.7499 21.2488 14.1844 21.3045 13.6388 21.196C13.0932 21.0875 12.5921 20.8196 12.1988 20.4263C11.8054 20.0329 11.5376 19.5318 11.429 18.9862C11.3205 18.4406 11.3762 17.8751 11.5891 17.3612C11.802 16.8473 12.1624 16.408 12.625 16.099C13.0875 15.79 13.6312 15.625 14.1875 15.625C14.9334 15.625 15.6488 15.9213 16.1762 16.4488C16.7037 16.9762 17 17.6916 17 18.4375ZM17 31.5625C17 32.1188 16.8351 32.6625 16.526 33.1251C16.217 33.5876 15.7777 33.9481 15.2638 34.1609C14.7499 34.3738 14.1844 34.4295 13.6388 34.321C13.0932 34.2125 12.5921 33.9446 12.1988 33.5513C11.8054 33.1579 11.5376 32.6568 11.429 32.1112C11.3205 31.5656 11.3762 31.0001 11.5891 30.4862C11.802 29.9723 12.1624 29.533 12.625 29.224C13.0875 28.915 13.6312 28.75 14.1875 28.75C14.9334 28.75 15.6488 29.0463 16.1762 29.5738C16.7037 30.1012 17 30.8166 17 31.5625ZM37.625 18.4375C37.625 18.9938 37.46 19.5375 37.151 20.0001C36.842 20.4626 36.4027 20.8231 35.8888 21.0359C35.3749 21.2488 34.8094 21.3045 34.2638 21.196C33.7182 21.0875 33.2171 20.8196 32.8238 20.4263C32.4304 20.0329 32.1626 19.5318 32.054 18.9862C31.9455 18.4406 32.0012 17.8751 32.2141 17.3612C32.427 16.8473 32.7874 16.408 33.25 16.099C33.7125 15.79 34.2562 15.625 34.8125 15.625C35.5584 15.625 36.2738 15.9213 36.8012 16.4488C37.3287 16.9762 37.625 17.6916 37.625 18.4375Z"
            fill= "#f72585"
          /> 
        </svg>