<svg
          class="icone"
          viewBox="0 0 46 48"
          xmlns="http://www.w3.org/2000/svg"
          height="22"
          >
          <path
            d="M45.793 40.5976L38.0141 3.61324C37.9135 3.12959 37.7183 2.67058 37.4397 2.26259C37.1612 1.85459 36.8048 1.50565 36.391 1.23581C35.9772 0.965975 35.5142 0.780555 35.0285 0.690205C34.5428 0.599855 34.0441 0.606356 33.5609 0.709335L22.5898 3.06715C21.6194 3.27963 20.7721 3.86668 20.2323 4.70061C19.6924 5.53454 19.5036 6.54789 19.707 7.52027L27.4859 44.5047C27.6593 45.3484 28.1179 46.1068 28.7846 46.6523C29.4513 47.1978 30.2855 47.4971 31.1469 47.5C31.4132 47.4996 31.6787 47.4713 31.9391 47.4156L42.9102 45.0578C43.8818 44.8448 44.7299 44.2566 45.2698 43.4212C45.8098 42.5858 45.9978 41.571 45.793 40.5976ZM23.375 6.75387C23.375 6.7398 23.375 6.73277 23.375 6.73277L34.3438 4.38902L35.1242 8.10855L24.1555 10.4687L23.375 6.75387ZM24.9266 14.1296L35.9 11.7742L36.6828 15.5007L25.7188 17.8586L24.9266 14.1296ZM26.4828 21.5289L37.4562 19.1711L40.5734 33.9929L29.6 36.3507L26.4828 21.5289ZM42.125 41.3922L31.1562 43.7359L30.3758 40.0164L41.3445 37.6562L42.125 41.3711C42.125 41.3851 42.125 41.3922 42.125 41.3922ZM15.875 2.49996H4.625C3.63044 2.49996 2.67661 2.89505 1.97335 3.59831C1.27009 4.30157 0.875 5.2554 0.875 6.24996V43.75C0.875 44.7445 1.27009 45.6983 1.97335 46.4016C2.67661 47.1049 3.63044 47.5 4.625 47.5H15.875C16.8696 47.5 17.8234 47.1049 18.5266 46.4016C19.2299 45.6983 19.625 44.7445 19.625 43.75V6.24996C19.625 5.2554 19.2299 4.30157 18.5266 3.59831C17.8234 2.89505 16.8696 2.49996 15.875 2.49996ZM4.625 6.24996H15.875V9.99996H4.625V6.24996ZM4.625 13.75H15.875V36.25H4.625V13.75ZM15.875 43.75H4.625V40H15.875V43.75Z"
            fill= "#f72585"
          /> 
        </svg>