<svg
          class="icone"
          viewBox="0 0 55 36"
          xmlns="http://www.w3.org/2000/svg"
          height="22"
          >
          <path
             d="M18.9468 1.32577C18.7954 1.00365 18.5554 0.731281 18.2549 0.540502C17.9544 0.349723 17.6059 0.248413 17.2499 0.248413C16.894 0.248413 16.5454 0.349723 16.2449 0.540502C15.9444 0.731281 15.7045 1.00365 15.5531 1.32577L0.553051 33.2008C0.44825 33.4236 0.388366 33.6649 0.376819 33.9109C0.365271 34.1569 0.402286 34.4027 0.48575 34.6344C0.654313 35.1023 1.00184 35.484 1.45188 35.6957C1.90192 35.9073 2.41761 35.9316 2.88549 35.763C3.35338 35.5944 3.73515 35.2469 3.9468 34.7969L7.85149 26.5H26.6484L30.5531 34.7969C30.6579 35.0197 30.8055 35.2197 30.9876 35.3855C31.1697 35.5512 31.3827 35.6795 31.6144 35.763C31.846 35.8465 32.0919 35.8835 32.3379 35.8719C32.5838 35.8604 32.8251 35.8005 33.048 35.6957C33.2708 35.5909 33.4708 35.4432 33.6366 35.2611C33.8024 35.079 33.9306 34.8661 34.0141 34.6344C34.0976 34.4027 34.1346 34.1569 34.123 33.9109C34.1115 33.6649 34.0516 33.4236 33.9468 33.2008L18.9468 1.32577ZM9.61633 22.75L17.2499 6.52889L24.8835 22.75H9.61633ZM45.3749 11.5C42.3843 11.5 40.0476 12.3133 38.4304 13.9187C38.0918 14.2717 37.9046 14.743 37.9086 15.2321C37.9126 15.7211 38.1075 16.1893 38.4518 16.5366C38.7961 16.884 39.2626 17.0831 39.7516 17.0914C40.2406 17.0998 40.7135 16.9167 41.0695 16.5812C41.9601 15.6976 43.4132 15.25 45.3749 15.25C48.4757 15.25 50.9999 17.3594 50.9999 19.9375V20.6922C49.336 19.5789 47.3769 18.9896 45.3749 19C40.2046 19 35.9999 22.7851 35.9999 27.4375C35.9999 32.0898 40.2046 35.875 45.3749 35.875C47.3777 35.8838 49.337 35.2919 50.9999 34.1758C51.0232 34.673 51.2431 35.1407 51.6112 35.4758C51.9794 35.811 52.4655 35.9862 52.9628 35.9629C53.4601 35.9396 53.9277 35.7197 54.2629 35.3516C54.598 34.9834 54.7732 34.4973 54.7499 34V19.9375C54.7499 15.2851 50.5452 11.5 45.3749 11.5ZM45.3749 32.125C42.2741 32.125 39.7499 30.0156 39.7499 27.4375C39.7499 24.8594 42.2741 22.75 45.3749 22.75C48.4757 22.75 50.9999 24.8594 50.9999 27.4375C50.9999 30.0156 48.4757 32.125 45.3749 32.125Z"
            fill= "#f72585"
          /> 
        </svg>