   <svg
          class="icone"
          viewBox="0 0 45 52"
          xmlns="http://www.w3.org/2000/svg"
          height="22"
          >
          <path
           d="M43.125 0.625H9.375C6.8886 0.625 4.50403 1.61272 2.74587 3.37087C0.98772 5.12903 0 7.5136 0 10V26.875C0 28.3668 0.592632 29.7976 1.64752 30.8525C2.70242 31.9074 4.13316 32.5 5.625 32.5H16.875L15.0258 43.4383C15.009 43.5413 15.0003 43.6456 15 43.75C15 45.7391 15.7902 47.6468 17.1967 49.0533C18.6032 50.4598 20.5109 51.25 22.5 51.25C24.4891 51.25 26.3968 50.4598 27.8033 49.0533C29.2098 47.6468 30 45.7391 30 43.75C29.9997 43.6456 29.991 43.5413 29.9742 43.4383L28.125 32.5H39.375C40.8668 32.5 42.2976 31.9074 43.3525 30.8525C44.4074 29.7976 45 28.3668 45 26.875V2.5C45 2.00272 44.8025 1.52581 44.4508 1.17417C44.0992 0.822544 43.6223 0.625 43.125 0.625ZM9.375 4.375H33.75V13.75C33.75 14.2473 33.9475 14.7242 34.2992 15.0758C34.6508 15.4275 35.1277 15.625 35.625 15.625C36.1223 15.625 36.5992 15.4275 36.9508 15.0758C37.3025 14.7242 37.5 14.2473 37.5 13.75V4.375H41.25V19.375H3.75V10C3.75 8.50816 4.34263 7.07742 5.39752 6.02252C6.45242 4.96763 7.88316 4.375 9.375 4.375ZM39.375 28.75H28.125C27.5878 28.75 27.0568 28.8654 26.5681 29.0884C26.0793 29.3115 25.6442 29.6369 25.2922 30.0427C24.9402 30.4485 24.6794 30.9252 24.5277 31.4406C24.3759 31.9559 24.3366 32.4978 24.4125 33.0297V33.0766L26.25 43.8906C26.25 44.8852 25.8549 45.839 25.1516 46.5423C24.4484 47.2455 23.4946 47.6406 22.5 47.6406C21.5054 47.6406 20.5516 47.2455 19.8484 46.5423C19.1451 45.839 18.75 44.8852 18.75 43.8906L20.5781 33.0766V33.0297C20.6539 32.4986 20.6149 31.9575 20.4636 31.4428C20.3124 30.9281 20.0525 30.4519 19.7015 30.0462C19.3505 29.6406 18.9165 29.315 18.4289 29.0913C17.9413 28.8677 17.4114 28.7513 16.875 28.75H5.625C5.12772 28.75 4.65081 28.5525 4.29918 28.2008C3.94754 27.8492 3.75 27.3723 3.75 26.875V23.125H41.25V26.875C41.25 27.3723 41.0525 27.8492 40.7008 28.2008C40.3492 28.5525 39.8723 28.75 39.375 28.75Z"
            fill= "#f72585"
          /> 
        </svg>