    <svg
          class="icone"
          viewBox="0 0 65 55"
          xmlns="http://www.w3.org/2000/svg"
          height="22"
          >
          <path
            d="M60 0H5C3.67392 0 2.40215 0.526784 1.46447 1.46447C0.526784 2.40215 0 3.67392 0 5V50C0 51.3261 0.526784 52.5979 1.46447 53.5355C2.40215 54.4732 3.67392 55 5 55H60C61.3261 55 62.5979 54.4732 63.5355 53.5355C64.4732 52.5979 65 51.3261 65 50V5C65 3.67392 64.4732 2.40215 63.5355 1.46447C62.5979 0.526784 61.3261 0 60 0ZM60 5V37.1094L51.8531 28.9656C51.3888 28.5012 50.8376 28.1328 50.2309 27.8815C49.6242 27.6301 48.9739 27.5008 48.3172 27.5008C47.6605 27.5008 47.0102 27.6301 46.4035 27.8815C45.7968 28.1328 45.2456 28.5012 44.7813 28.9656L38.5313 35.2156L24.7813 21.4656C23.8437 20.5287 22.5724 20.0023 21.2469 20.0023C19.9214 20.0023 18.6501 20.5287 17.7125 21.4656L5 34.1781V5H60ZM5 41.25L21.25 25L46.25 50H5V41.25ZM60 50H53.3219L42.0719 38.75L48.3219 32.5L60 44.1813V50ZM37.5 18.75C37.5 18.0083 37.7199 17.2833 38.132 16.6666C38.544 16.0499 39.1297 15.5693 39.8149 15.2855C40.5002 15.0016 41.2542 14.9274 41.9816 15.0721C42.709 15.2167 43.3772 15.5739 43.9016 16.0983C44.4261 16.6228 44.7833 17.291 44.9279 18.0184C45.0726 18.7458 44.9984 19.4998 44.7145 20.1851C44.4307 20.8703 43.9501 21.456 43.3334 21.868C42.7167 22.2801 41.9917 22.5 41.25 22.5C40.2554 22.5 39.3016 22.1049 38.5984 21.4017C37.8951 20.6984 37.5 19.7446 37.5 18.75Z" 
            fill= "#f72585"
          /> 
        </svg>