<svg xmlns="http://www.w3.org/2000/svg" width="248" height="46" viewBox="0 0 248 46" fill="none">
  <path fill-rule="evenodd" clip-rule="evenodd" d="M186.37 45.0219H203.502V26.625H200.671C199.885 26.625 199.217 26.9002 198.667 27.4505C198.116 27.9615 197.841 28.6102 197.841 29.3963V39.7741H186.37V45.0219ZM180.998 8.22814H179.267C176.987 8.22814 174.845 8.64089 172.84 9.46639C170.835 10.2919 169.066 11.4319 167.533 12.8863C166.04 14.3015 164.86 15.9721 163.995 17.8983C163.131 19.7852 162.698 21.8293 162.698 24.0306C162.698 26.1926 163.131 28.2367 163.995 30.1629C164.86 32.0497 166.04 33.7204 167.533 35.1749C169.066 36.59 170.835 37.7103 172.84 38.5358C174.845 39.3613 176.987 39.7741 179.267 39.7741H180.998V45.0219H179.149C176.162 45.0219 173.332 44.4716 170.658 43.3709C167.985 42.2309 165.666 40.7175 163.701 38.8307C161.735 36.9045 160.163 34.6835 158.984 32.1677C157.844 29.6126 157.274 26.9002 157.274 24.0306C157.274 21.2003 157.804 18.5469 158.866 16.0704C159.966 13.5939 161.46 11.4122 163.347 9.52535C165.234 7.63849 167.435 6.12507 169.951 4.9851C172.506 3.80581 175.238 3.13754 178.147 2.9803H180.998V8.22814ZM186.37 8.22814H198.018C198.804 8.22814 199.472 7.97262 200.023 7.4616C200.573 6.91127 200.848 6.26266 200.848 5.51578V2.9803H186.37V8.22814ZM77.4802 45.0219H62.8253V39.7741H74.65C75.4361 39.7741 76.1044 40.0492 76.6547 40.5996C77.2051 41.1106 77.4802 41.7396 77.4802 42.4864V45.0219ZM58.4937 8.22814H58.5281V2.9803H57.3734C54.4645 3.13754 51.7325 3.80581 49.1773 4.9851C46.6615 6.12507 44.4602 7.63849 42.5733 9.52535C40.6865 11.4122 39.1927 13.5939 38.092 16.0704C37.0307 18.5469 36.5 21.2003 36.5 24.0306C36.5 26.8216 37.0307 29.4553 38.092 31.9318C39.1927 34.4083 40.6865 36.59 42.5733 38.4769C44.4602 40.3637 46.6615 41.8968 49.1773 43.0761C51.7325 44.2161 54.4645 44.8647 57.3734 45.0219H58.5281V39.7741H58.4937C56.2138 39.7741 54.0714 39.3613 52.0666 38.5358C50.0618 37.7103 48.2929 36.59 46.7598 35.1749C45.266 33.7204 44.0868 32.0497 43.2219 30.1629C42.3571 28.2367 41.9247 26.1926 41.9247 24.0306C41.9247 21.8293 42.3571 19.7852 43.2219 17.8983C44.0868 15.9721 45.266 14.3015 46.7598 12.8863C48.2929 11.4319 50.0618 10.2919 52.0666 9.46639C54.0714 8.64089 56.2138 8.22814 58.4937 8.22814ZM74.65 8.22814H62.8253V2.9803H77.4802V5.51578C77.4802 6.26266 77.2051 6.91127 76.6547 7.4616C76.1044 7.97262 75.4361 8.22814 74.65 8.22814ZM102.582 17.7232C103.649 16.9265 103.649 14.7007 103.649 8.49586L119.314 8.22814C121.594 8.22814 123.737 8.64089 125.742 9.46639C127.746 10.2919 129.496 11.4319 130.989 12.8863C132.483 14.3015 133.662 15.9721 134.527 17.8983C135.392 19.7852 135.824 21.8293 135.824 24.0306C135.824 26.1926 135.392 28.2367 134.527 30.1629C133.662 32.0497 132.463 33.7204 130.93 35.1749C129.437 36.59 127.687 37.7103 125.683 38.5358C123.678 39.3613 121.535 39.7741 119.255 39.7741H102.097C101.311 39.7741 100.642 40.0492 100.092 40.5996C99.5417 41.1106 99.2665 41.7396 99.2665 42.4864V45.0219H119.02C122.125 45.0219 125.054 44.4716 127.805 43.3709C130.557 42.2702 132.994 40.6585 135.117 38.5358C137.161 36.4917 138.694 34.2118 139.716 31.696C140.738 29.1408 141.249 26.5661 141.249 23.9716C141.249 21.3379 140.738 18.7631 139.716 16.2473C138.694 13.6922 137.141 11.3926 135.058 9.34846C132.935 7.22574 130.478 5.6337 127.687 4.57234C124.936 3.47168 122.027 2.941 118.961 2.9803H99.2665V5.51578V18.1646C99.3815 18.1646 99.4935 18.1647 99.6025 18.1649C101.054 18.1673 101.985 18.1688 102.582 17.7232Z" fill="white"/>
  <path d="M23.5 2.97827L4.54757 21.9307C3.96901 22.5093 3.96901 23.4473 4.54757 24.0258L23.5 42.9783" stroke="#F72585" stroke-width="6.99592"/>
  <path d="M224.5 2.97827L243.452 21.9307C244.031 22.5093 244.031 23.4473 243.452 24.0258L224.5 42.9783" stroke="#F72585" stroke-width="6.99592"/>
</svg>